<svg class="svg-standalone-icon" width="100%" viewBox="64.99999999999997 203.41351751942582 85.89994593960986 63.173046564021405"><g data-paper-data="{&quot;fillRule&quot;:&quot;evenodd&quot;,&quot;fillRuleOriginal&quot;:&quot;evenodd&quot;,&quot;isIcon&quot;:true,&quot;iconStyle&quot;:&quot;standalone&quot;,&quot;selectedEffects&quot;:{&quot;container&quot;:&quot;&quot;,&quot;transformation&quot;:&quot;&quot;,&quot;pattern&quot;:&quot;&quot;},&quot;bounds&quot;:{&quot;x&quot;:64.99999999999997,&quot;y&quot;:203.41351751942582,&quot;width&quot;:85.89994593960986,&quot;height&quot;:63.173046564021405},&quot;iconType&quot;:&quot;icon&quot;,&quot;isDetailed&quot;:false,&quot;source&quot;:&quot;noun&quot;,&quot;rawIconId&quot;:&quot;1352914&quot;,&quot;suitableAsStandaloneIcon&quot;:true}" fill-rule="evenodd"><g data-paper-data="{&quot;isPathIcon&quot;:true}"><path d="M65.72941,210.99484c-0.6739,-0.363 -0.9263,-1.203 -0.5638,-1.877c0.3625,-0.673 1.2026,-0.926 1.8765,-0.563c13.34519,7.179 26.71029,7.179 40.25888,-0.004c11.96399,-6.343 24.64999,-6.343 36.49498,-2.553c1.726,0.552 3.281,1.145 4.642,1.739c0.826,0.361 1.41,0.646 1.729,0.816c0.675,0.36 0.93,1.2 0.569,1.875c-0.36,0.675 -1.2,0.929 -1.874,0.569c-0.058,-0.031 -0.183,-0.095 -0.374,-0.188c-0.328,-0.16 -0.715,-0.339 -1.158,-0.532c-1.278,-0.558 -2.745,-1.117 -4.379,-1.64c-11.19499,-3.582 -23.13999,-3.582 -34.35198,2.362c-14.36289,7.615 -28.70718,7.615 -42.86958,-0.004z" fill="#040009" style="fill: rgb(0, 0, 0);"></path><path d="M65.72941,235.93283c-0.6739,-0.362 -0.9263,-1.202 -0.5638,-1.876c0.3625,-0.674 1.2026,-0.926 1.8765,-0.564c13.34519,7.179 26.71029,7.179 40.25888,-0.004c11.96399,-6.343 24.64999,-6.343 36.49498,-2.553c1.726,0.553 3.281,1.145 4.642,1.74c0.826,0.36 1.41,0.645 1.729,0.815c0.675,0.361 0.93,1.2 0.569,1.875c-0.36,0.675 -1.2,0.93 -1.874,0.57c-0.058,-0.031 -0.183,-0.095 -0.374,-0.188c-0.328,-0.16 -0.715,-0.339 -1.158,-0.533c-1.278,-0.557 -2.745,-1.117 -4.379,-1.639c-11.19499,-3.583 -23.13999,-3.583 -34.35198,2.361c-14.36289,7.615 -28.70718,7.615 -42.86958,-0.004z" fill="#37718a" style="fill: rgb(0, 0, 0);"></path><path d="M65.16561,258.99482c-0.3625,0.675 -0.1101,1.514 0.5638,1.877c14.16239,7.619 28.50668,7.619 42.86958,0.004c11.21199,-5.944 23.15699,-5.944 34.35198,-2.362c1.634,0.522 3.101,1.082 4.379,1.64c0.443,0.193 0.83,0.372 1.158,0.532c0.191,0.093 0.316,0.157 0.374,0.188c0.674,0.36 1.514,0.106 1.874,-0.57c0.361,-0.674 0.106,-1.514 -0.569,-1.874c-0.319,-0.17 -0.903,-0.455 -1.729,-0.816c-1.361,-0.594 -2.916,-1.187 -4.642,-1.739c-11.84499,-3.79 -24.53099,-3.79 -36.49498,2.553c-13.54859,7.183 -26.91369,7.183 -40.25888,0.004c-0.6739,-0.363 -1.514,-0.11 -1.8765,0.563z" fill="#040009" style="fill: rgb(0, 0, 0);"></path></g></g></svg>